#==============================================
# OBJ File Generated by Basic World 
#=================
# File data
# Object        Cube50mm.obj
#==================
####
# Vertices: 8
# Faces: 12
####
v -25.000000 -25.000000 25.000000
v -25.000000 -25.000000 -25.000000
v 25.000000 -25.000000 -25.000000
v 25.000000 -25.000000 25.000000
v -25.000000 25.000000 25.000000
v -25.000000 25.000000 -25.000000
v 25.000000 25.000000 -25.000000
v 25.000000 25.000000 25.000000
vn -0.666667 -0.666667 0.333333
vn -0.408248 -0.408248 -0.816497
vn 0.666667 -0.666667 -0.333333
vn 0.408248 -0.408248 0.816497
vn -0.333333 0.666667 0.666667
vn -0.816497 0.408248 -0.408248
vn 0.333333 0.666667 -0.666667
vn 0.816497 0.408248 0.408248

# 8 vertices, 8 vertices normals
f 1//1 2//2 3//3
f 1//1 3//3 4//4
f 1//1 5//5 6//6
f 1//1 6//6 2//2
f 2//2 6//6 7//7
f 2//2 7//7 3//3
f 3//3 7//7 8//8
f 3//3 8//8 4//4
f 4//4 8//8 5//5
f 4//4 5//5 1//1
f 5//5 8//8 7//7
f 5//5 7//7 6//6

# 12 faces, 0 coords texture

# End of File

